<svg width="32" height="32" viewBox="0 0 32 32" fill="none" xmlns="http://www.w3.org/2000/svg">
<g clip-path="url(#clip0_2653_9551)">
<path d="M23 20H27" stroke="black" stroke-width="1.5" stroke-linecap="round" stroke-linejoin="round"/>
<path d="M23 12H27" stroke="black" stroke-width="1.5" stroke-linecap="round" stroke-linejoin="round"/>
<path d="M26 5H6C5.44772 5 5 5.44772 5 6V26C5 26.5523 5.44772 27 6 27H26C26.5523 27 27 26.5523 27 26V6C27 5.44772 26.5523 5 26 5Z" stroke="black" stroke-width="1.5" stroke-linecap="round" stroke-linejoin="round"/>
<path d="M14 18C15.6569 18 17 16.6569 17 15C17 13.3431 15.6569 12 14 12C12.3431 12 11 13.3431 11 15C11 16.6569 12.3431 18 14 18Z" stroke="black" stroke-width="1.5" stroke-linecap="round" stroke-linejoin="round"/>
<path d="M10 21C10.4437 19.275 12.1363 18 14 18C15.8637 18 17.5575 19.2737 18 21" stroke="black" stroke-width="1.5" stroke-linecap="round" stroke-linejoin="round"/>
<path d="M23 5V27" stroke="black" stroke-width="1.5" stroke-linecap="round" stroke-linejoin="round"/>
</g>
<defs>
<clipPath id="clip0_2653_9551">
<rect width="32" height="32" fill="white"/>
</clipPath>
</defs>
</svg>
