<svg width="21" height="20" viewBox="0 0 21 20" fill="none" xmlns="http://www.w3.org/2000/svg">
<path fill-rule="evenodd" clip-rule="evenodd" d="M17.2069 5.29303C17.3944 5.48056 17.4997 5.73487 17.4997 6.00003C17.4997 6.26519 17.3944 6.5195 17.2069 6.70703L9.20692 14.707C9.01939 14.8945 8.76508 14.9998 8.49992 14.9998C8.23475 14.9998 7.98045 14.8945 7.79292 14.707L3.79292 10.707C3.61076 10.5184 3.50997 10.2658 3.51224 10.0036C3.51452 9.74143 3.61969 9.49062 3.8051 9.30521C3.99051 9.1198 4.24132 9.01464 4.50352 9.01236C4.76571 9.01008 5.01832 9.11087 5.20692 9.29303L8.49992 12.586L15.7929 5.29303C15.9804 5.10556 16.2348 5.00024 16.4999 5.00024C16.7651 5.00024 17.0194 5.10556 17.2069 5.29303Z" fill="white"/>
</svg>
