<svg width="32" height="32" viewBox="0 0 32 32" fill="none" xmlns="http://www.w3.org/2000/svg">
<rect width="32" height="32" rx="8" fill="black"/>
<rect x="0.5" y="0.5" width="31" height="31" rx="7.5" stroke="black" stroke-opacity="0.1"/>
<path fill-rule="evenodd" clip-rule="evenodd" d="M16 24C18.1217 24 20.1566 23.1571 21.6569 21.6569C23.1571 20.1566 24 18.1217 24 16C24 13.8783 23.1571 11.8434 21.6569 10.3431C20.1566 8.84285 18.1217 8 16 8C13.8783 8 11.8434 8.84285 10.3431 10.3431C8.84285 11.8434 8 13.8783 8 16C8 18.1217 8.84285 20.1566 10.3431 21.6569C11.8434 23.1571 13.8783 24 16 24ZM19.707 14.707C19.8892 14.5184 19.99 14.2658 19.9877 14.0036C19.9854 13.7414 19.8802 13.4906 19.6948 13.3052C19.5094 13.1198 19.2586 13.0146 18.9964 13.0123C18.7342 13.01 18.4816 13.1108 18.293 13.293L15 16.586L13.707 15.293C13.5184 15.1108 13.2658 15.01 13.0036 15.0123C12.7414 15.0146 12.4906 15.1198 12.3052 15.3052C12.1198 15.4906 12.0146 15.7414 12.0123 16.0036C12.01 16.2658 12.1108 16.5184 12.293 16.707L14.293 18.707C14.4805 18.8945 14.7348 18.9998 15 18.9998C15.2652 18.9998 15.5195 18.8945 15.707 18.707L19.707 14.707Z" fill="white"/>
</svg>
