<svg width="20" height="21" viewBox="0 0 20 21" fill="none" xmlns="http://www.w3.org/2000/svg">
<path fill-rule="evenodd" clip-rule="evenodd" d="M10 18.3362C12.1217 18.3362 14.1566 17.4933 15.6569 15.993C17.1571 14.4927 18 12.4579 18 10.3362C18 8.21445 17.1571 6.17962 15.6569 4.67933C14.1566 3.17904 12.1217 2.33618 10 2.33618C7.87827 2.33618 5.84344 3.17904 4.34315 4.67933C2.84285 6.17962 2 8.21445 2 10.3362C2 12.4579 2.84285 14.4927 4.34315 15.993C5.84344 17.4933 7.87827 18.3362 10 18.3362ZM11 6.33618C11 6.07097 10.8946 5.81661 10.7071 5.62908C10.5196 5.44154 10.2652 5.33618 10 5.33618C9.73478 5.33618 9.48043 5.44154 9.29289 5.62908C9.10536 5.81661 9 6.07097 9 6.33618V10.3362C9.00006 10.6014 9.10545 10.8557 9.293 11.0432L12.121 13.8722C12.2139 13.9651 12.3242 14.0388 12.4456 14.0891C12.567 14.1394 12.6971 14.1652 12.8285 14.1652C12.9599 14.1652 13.09 14.1394 13.2114 14.0891C13.3328 14.0388 13.4431 13.9651 13.536 13.8722C13.6289 13.7793 13.7026 13.669 13.7529 13.5476C13.8032 13.4262 13.8291 13.2961 13.8291 13.1647C13.8291 13.0333 13.8032 12.9032 13.7529 12.7818C13.7026 12.6604 13.6289 12.5501 13.536 12.4572L11 9.92218V6.33618Z" fill="black"/>
</svg>
