<svg width="19" height="21" viewBox="0 0 19 21" fill="none" xmlns="http://www.w3.org/2000/svg">
<g opacity="0.5">
<path fill-rule="evenodd" clip-rule="evenodd" d="M6.29371 3.48368C7.59172 2.93098 8.99883 2.72229 10.3914 2.87596C11.784 3.02963 13.1194 3.54095 14.2803 4.365C15.4412 5.18905 16.392 6.3006 17.0493 7.602C17.7066 8.90339 18.0502 10.3548 18.05 11.8287C18.05 12.0939 17.9499 12.3483 17.7717 12.5358C17.5936 12.7233 17.3519 12.8287 17.1 12.8287C16.848 12.8287 16.6064 12.7233 16.4282 12.5358C16.25 12.3483 16.15 12.0939 16.15 11.8287C16.1504 10.6822 15.8833 9.55316 15.3722 8.54077C14.861 7.52838 14.1215 6.66365 13.2185 6.02255C12.3156 5.38146 11.2768 4.98364 10.1936 4.86404C9.11042 4.74445 8.01588 4.90675 7.00621 5.33668C6.8898 5.39079 6.76425 5.41972 6.63702 5.42177C6.50978 5.42382 6.38345 5.39894 6.26553 5.34861C6.1476 5.29827 6.04049 5.22352 5.95054 5.12877C5.86058 5.03403 5.78963 4.92123 5.74189 4.79707C5.69415 4.67291 5.67059 4.53991 5.67261 4.40598C5.67464 4.27205 5.7022 4.13991 5.75367 4.01741C5.80514 3.89491 5.87946 3.78454 5.97223 3.69286C6.065 3.60117 6.17432 3.53004 6.29371 3.48368V3.48368ZM4.42886 5.78768C4.61762 5.96317 4.73247 6.21038 4.74814 6.47497C4.76382 6.73955 4.67905 6.99987 4.51246 7.19868C3.43883 8.47594 2.84734 10.1232 2.84996 11.8287C2.84996 12.0939 2.74987 12.3483 2.57171 12.5358C2.39355 12.7233 2.15191 12.8287 1.89996 12.8287C1.648 12.8287 1.40637 12.7233 1.22821 12.5358C1.05005 12.3483 0.949958 12.0939 0.949958 11.8287C0.947311 9.63605 1.7077 7.51833 3.08746 5.87568C3.17002 5.77715 3.27022 5.69671 3.38233 5.63895C3.49444 5.5812 3.61626 5.54727 3.74083 5.53909C3.86541 5.53092 3.99029 5.54867 4.10835 5.59132C4.2264 5.63398 4.33531 5.7007 4.42886 5.78768V5.78768Z" fill="black"/>
<path fill-rule="evenodd" clip-rule="evenodd" d="M4.74997 11.8287C4.74997 10.5027 5.25041 9.23088 6.14121 8.2932C7.03201 7.35552 8.24019 6.82874 9.49997 6.82874C10.7597 6.82874 11.9679 7.35552 12.8587 8.2932C13.7495 9.23088 14.25 10.5027 14.25 11.8287C14.25 12.094 14.1499 12.3483 13.9717 12.5358C13.7936 12.7234 13.5519 12.8287 13.3 12.8287C13.048 12.8287 12.8064 12.7234 12.6282 12.5358C12.4501 12.3483 12.35 12.094 12.35 11.8287C12.35 11.0331 12.0497 10.27 11.5152 9.70741C10.9807 9.14481 10.2558 8.82874 9.49997 8.82874C8.7441 8.82874 8.01919 9.14481 7.48471 9.70741C6.95023 10.27 6.64997 11.0331 6.64997 11.8287C6.64997 13.5057 6.32222 15.1047 5.73037 16.5577C5.63097 16.8015 5.44366 16.9937 5.20965 17.092C4.97564 17.1904 4.71409 17.1869 4.48254 17.0822C4.251 16.9776 4.06842 16.7804 3.97497 16.5341C3.88153 16.2878 3.88487 16.0125 3.98427 15.7687C4.49125 14.5238 4.75179 13.1832 4.74997 11.8287V11.8287ZM13.2249 13.8407C13.3482 13.8613 13.4664 13.9072 13.5728 13.9759C13.6792 14.0446 13.7717 14.1347 13.845 14.241C13.9184 14.3474 13.9711 14.4679 14.0001 14.5956C14.0292 14.7234 14.034 14.856 14.0144 14.9857C13.8905 15.8084 13.7176 16.622 13.4966 17.4217C13.4642 17.5506 13.4076 17.6713 13.3301 17.7768C13.2527 17.8823 13.156 17.9704 13.0458 18.036C12.9355 18.1016 12.8139 18.1433 12.6881 18.1587C12.5623 18.1741 12.4348 18.1629 12.3132 18.1257C12.1916 18.0885 12.0783 18.0261 11.9799 17.9421C11.8816 17.8581 11.8002 17.7543 11.7405 17.6367C11.6808 17.5191 11.644 17.3902 11.6324 17.2574C11.6207 17.1247 11.6344 16.9908 11.6726 16.8637C11.8693 16.1507 12.0251 15.4187 12.1381 14.6717C12.1778 14.41 12.3146 14.1756 12.5184 14.02C12.7221 13.8644 12.9763 13.8003 13.2249 13.8417V13.8407Z" fill="black"/>
<path fill-rule="evenodd" clip-rule="evenodd" d="M9.50001 10.8287C9.75196 10.8287 9.9936 10.9341 10.1718 11.1216C10.3499 11.3092 10.45 11.5635 10.45 11.8287C10.45 14.0647 10.013 16.1967 9.22451 18.1327C9.17529 18.2534 9.10398 18.3627 9.01463 18.4544C8.92529 18.5461 8.81966 18.6183 8.70379 18.667C8.58792 18.7157 8.46407 18.7399 8.33931 18.7382C8.21456 18.7366 8.09133 18.709 7.97668 18.6572C7.86203 18.6054 7.7582 18.5304 7.67111 18.4363C7.58402 18.3423 7.51538 18.2311 7.46911 18.1091C7.42284 17.9871 7.39985 17.8568 7.40144 17.7255C7.40304 17.5941 7.42919 17.4644 7.47841 17.3437C8.18787 15.6011 8.55249 13.7246 8.55001 11.8287C8.55001 11.5635 8.6501 11.3092 8.82826 11.1216C9.00642 10.9341 9.24805 10.8287 9.50001 10.8287V10.8287Z" fill="black"/>
</g>
</svg>
