<svg width="25" height="28" viewBox="0 0 25 28" fill="none" xmlns="http://www.w3.org/2000/svg">
<g clip-path="url(#clip0_794_6374)">
<path d="M12.057 27.9362L0.906 21.4982C0.655 21.3532 0.5 21.0852 0.5 20.7952V7.92016C0.5 7.63016 0.655 7.36216 0.906 7.21716L12.057 0.77916C12.308 0.63416 12.617 0.63416 12.868 0.77916L24.019 7.21716C24.27 7.36216 24.425 7.63016 24.425 7.92016V20.7952C24.425 21.0852 24.27 21.3532 24.019 21.4982L12.868 27.9362C12.617 28.0812 12.308 28.0812 12.056 27.9362H12.057ZM2.935 20.3272L12.057 25.5932C12.308 25.7392 12.617 25.7392 12.868 25.5932L21.99 20.3272C22.241 20.1822 22.396 19.9142 22.396 19.6242V9.09216C22.396 8.80216 22.241 8.53416 21.99 8.38816L12.868 3.12216C12.617 2.97716 12.308 2.97716 12.056 3.12216L2.935 8.38816C2.684 8.53416 2.529 8.80216 2.53 9.09216V19.6242C2.53 19.9142 2.684 20.1822 2.935 20.3272Z" fill="black"/>
<path d="M12.0571 4.98477L4.54809 9.31977C4.29709 9.46477 4.14209 9.73277 4.14209 10.0228V18.2238C4.14209 18.8038 4.45209 19.3398 4.95409 19.6298L5.86709 20.1568C5.93009 20.1928 6.00709 20.1928 6.07009 20.1568C6.13309 20.1208 6.17209 20.0538 6.17109 19.9818V11.1948C6.17109 10.9048 6.32609 10.6368 6.57709 10.4918L12.0561 7.32877C12.3071 7.18377 12.6171 7.18377 12.8681 7.32877L18.3471 10.4918C18.5981 10.6368 18.7531 10.9048 18.7531 11.1948V17.5218C18.7531 17.8118 18.5981 18.0798 18.3471 18.2248L12.8681 21.3878C12.6171 21.5328 12.3071 21.5328 12.0561 21.3878L10.2301 20.3338C9.97909 20.1888 9.82409 19.9208 9.82409 19.6308V13.3038C9.82409 13.0138 9.97909 12.7458 10.2301 12.6008L12.0561 11.5458C12.3071 11.4008 12.6171 11.4008 12.8681 11.5458L14.6941 12.6008C14.9461 12.7458 15.1001 13.0138 15.1001 13.3038V15.4128C15.1001 15.7028 14.9461 15.9708 14.6941 16.1158L13.7811 16.6428C13.7181 16.6788 13.6411 16.6788 13.5781 16.6428C13.5151 16.6068 13.4771 16.5398 13.4771 16.4668V14.2558C13.4771 13.9658 13.3221 13.6978 13.0711 13.5528L12.6651 13.3178C12.5391 13.2458 12.3851 13.2458 12.2591 13.3178L11.7521 13.6108C11.5641 13.7188 11.4481 13.9198 11.4481 14.1378V18.7018C11.4481 18.9928 11.6041 19.2618 11.8561 19.4058L12.0521 19.5178C12.3031 19.6608 12.6111 19.6598 12.8611 19.5158L16.7231 17.2858C16.9751 17.1408 17.1291 16.8728 17.1291 16.5828V12.1298C17.1291 11.8398 16.9751 11.5718 16.7241 11.4268L12.8681 9.20077C12.6171 9.05577 12.3081 9.05577 12.0561 9.20077L8.20109 11.4268C7.95009 11.5718 7.79509 11.8398 7.79509 12.1298V20.7998C7.79509 21.0898 7.95009 21.3578 8.20109 21.5028L12.0571 23.7288C12.3081 23.8738 12.6171 23.8738 12.8681 23.7288L20.3761 19.3938C20.6281 19.2488 20.7821 18.9808 20.7821 18.6908V10.0218C20.7821 9.73177 20.6281 9.46277 20.3761 9.31777L12.8681 4.98277C12.6171 4.83777 12.3081 4.83777 12.0571 4.98277V4.98477Z" fill="black"/>
</g>
<defs>
<clipPath id="clip0_794_6374">
<rect width="24" height="27" fill="white" transform="translate(0.5 0.669922)"/>
</clipPath>
</defs>
</svg>
