<svg width="19" height="19" viewBox="0 0 19 19" fill="none" xmlns="http://www.w3.org/2000/svg">
<g opacity="0.2">
<path fill-rule="evenodd" clip-rule="evenodd" d="M16.7 9.16973C16.7 11.0793 15.9415 12.9106 14.5912 14.2609C13.241 15.6112 11.4096 16.3697 9.50005 16.3697C7.59049 16.3697 5.75914 15.6112 4.40888 14.2609C3.05862 12.9106 2.30005 11.0793 2.30005 9.16973C2.30005 7.26017 3.05862 5.42882 4.40888 4.07856C5.75914 2.7283 7.59049 1.96973 9.50005 1.96973C11.4096 1.96973 13.241 2.7283 14.5912 4.07856C15.9415 5.42882 16.7 7.26017 16.7 9.16973ZM10.4 5.56973C10.4 5.80842 10.3052 6.03734 10.1364 6.20612C9.96766 6.37491 9.73874 6.46973 9.50005 6.46973C9.26135 6.46973 9.03244 6.37491 8.86365 6.20612C8.69487 6.03734 8.60005 5.80842 8.60005 5.56973C8.60005 5.33103 8.69487 5.10211 8.86365 4.93333C9.03244 4.76455 9.26135 4.66973 9.50005 4.66973C9.73874 4.66973 9.96766 4.76455 10.1364 4.93333C10.3052 5.10211 10.4 5.33103 10.4 5.56973ZM8.60005 8.26973C8.36135 8.26973 8.13244 8.36455 7.96365 8.53333C7.79487 8.70211 7.70005 8.93103 7.70005 9.16973C7.70005 9.40842 7.79487 9.63734 7.96365 9.80612C8.13244 9.97491 8.36135 10.0697 8.60005 10.0697V12.7697C8.60005 13.0084 8.69487 13.2373 8.86365 13.4061C9.03244 13.5749 9.26135 13.6697 9.50005 13.6697H10.4C10.6387 13.6697 10.8677 13.5749 11.0364 13.4061C11.2052 13.2373 11.3 13.0084 11.3 12.7697C11.3 12.531 11.2052 12.3021 11.0364 12.1333C10.8677 11.9645 10.6387 11.8697 10.4 11.8697V9.16973C10.4 8.93103 10.3052 8.70211 10.1364 8.53333C9.96766 8.36455 9.73874 8.26973 9.50005 8.26973H8.60005Z" fill="black"/>
</g>
</svg>
