<svg width="31" height="31" viewBox="0 0 31 31" fill="none" xmlns="http://www.w3.org/2000/svg">
<rect x="0.5" y="0.5" width="30" height="30" rx="10" fill="black"/>
<path fill-rule="evenodd" clip-rule="evenodd" d="M10.5 14.5V12.5C10.5 11.1739 11.0268 9.90215 11.9645 8.96447C12.9021 8.02678 14.1739 7.5 15.5 7.5C16.8261 7.5 18.0979 8.02678 19.0355 8.96447C19.9732 9.90215 20.5 11.1739 20.5 12.5V14.5C21.0304 14.5 21.5391 14.7107 21.9142 15.0858C22.2893 15.4609 22.5 15.9696 22.5 16.5V21.5C22.5 22.0304 22.2893 22.5391 21.9142 22.9142C21.5391 23.2893 21.0304 23.5 20.5 23.5H10.5C9.96957 23.5 9.46086 23.2893 9.08579 22.9142C8.71071 22.5391 8.5 22.0304 8.5 21.5V16.5C8.5 15.9696 8.71071 15.4609 9.08579 15.0858C9.46086 14.7107 9.96957 14.5 10.5 14.5V14.5ZM18.5 12.5V14.5H12.5V12.5C12.5 11.7044 12.8161 10.9413 13.3787 10.3787C13.9413 9.81607 14.7044 9.5 15.5 9.5C16.2956 9.5 17.0587 9.81607 17.6213 10.3787C18.1839 10.9413 18.5 11.7044 18.5 12.5V12.5Z" fill="white"/>
</svg>
