<svg width="33" height="33" viewBox="0 0 33 33" fill="none" xmlns="http://www.w3.org/2000/svg">
<rect x="1.1001" y="1.44824" width="31" height="31" rx="7.5" stroke="black" stroke-opacity="0.1"/>
<path fill-rule="evenodd" clip-rule="evenodd" d="M16.6001 26.9482C22.1229 26.9482 26.6001 22.4711 26.6001 16.9482C26.6001 11.4254 22.1229 6.94824 16.6001 6.94824C11.0773 6.94824 6.6001 11.4254 6.6001 16.9482C6.6001 22.4711 11.0773 26.9482 16.6001 26.9482ZM8.75177 19.3432V16.5176C8.75177 16.4318 8.79795 16.3527 8.87264 16.3104L9.92401 15.7157C10.0827 15.6259 10.2793 15.7406 10.2793 15.9229V18.7329C10.2793 18.8644 10.3859 18.971 10.5174 18.971H11.0596C11.1911 18.971 11.2977 19.0776 11.2977 19.2091V20.029C11.2977 20.1605 11.4043 20.2671 11.5358 20.2671H11.5688C11.7003 20.2671 11.8069 20.3737 11.8069 20.5052V21.7571C11.8069 21.8886 11.9135 21.9952 12.045 21.9952H12.5872C12.7187 21.9952 12.8253 21.8886 12.8253 21.7571V17.3531C12.8253 17.2832 12.856 17.2168 12.9093 17.1715L13.9607 16.2795C14.1154 16.1482 14.3528 16.2582 14.3528 16.461V21.7571C14.3528 21.8886 14.4594 21.9952 14.5909 21.9952H14.6239C14.7554 21.9952 14.862 21.8886 14.862 21.7571V18.8986C14.862 18.728 15.0361 18.6128 15.1931 18.6794L15.7353 18.9094C15.8233 18.9467 15.8804 19.033 15.8804 19.1286V21.7571C15.8804 21.8886 15.987 21.9952 16.1185 21.9952H16.1515C16.283 21.9952 16.3896 21.8886 16.3896 21.7571V16.057C16.3896 15.987 16.4203 15.9207 16.4736 15.8754L17.8331 14.722C17.8864 14.6767 17.9171 14.6103 17.9171 14.5404V12.7866C17.9171 12.7167 17.9479 12.6503 18.0012 12.6051L19.5617 11.281C19.7164 11.1497 19.9539 11.2597 19.9539 11.4625V21.7571C19.9539 21.8886 20.0605 21.9952 20.192 21.9952H20.225C20.3565 21.9952 20.4631 21.8886 20.4631 21.7571V20.5052C20.4631 20.3737 20.5697 20.2671 20.7012 20.2671H21.2433C21.3748 20.2671 21.4814 20.1605 21.4814 20.029V15.9031C21.4814 15.7253 21.6691 15.6103 21.8276 15.6909L23.8973 16.7446C23.9771 16.7852 24.0274 16.8672 24.0274 16.9568V18.4492C24.0274 18.507 24.0484 18.5629 24.0867 18.6064L24.6194 19.2123C24.662 19.2608 24.6755 19.3284 24.6549 19.3895C22.1942 26.6966 12.0366 27.1642 8.91496 20.1141L8.6373 19.487C8.61979 19.4475 8.64874 19.403 8.69197 19.403C8.725 19.403 8.75177 19.3762 8.75177 19.3432Z" fill="black"/>
</svg>
