<svg width="33" height="33" viewBox="0 0 33 33" fill="none" xmlns="http://www.w3.org/2000/svg">
<rect x="1.1001" y="1.44824" width="31" height="31" rx="7.5" stroke="black" stroke-opacity="0.1"/>
<g clip-path="url(#clip0_991_1384)">
<g clip-path="url(#clip1_991_1384)">
<path d="M15.2678 27.1453L6.9046 22.3764C6.71635 22.269 6.6001 22.0705 6.6001 21.8557V12.3187C6.6001 12.1039 6.71635 11.9053 6.9046 11.7979L15.2678 7.02904C15.4561 6.92163 15.6878 6.92163 15.8761 7.02904L24.2393 11.7979C24.4276 11.9053 24.5438 12.1039 24.5438 12.3187V21.8557C24.5438 22.0705 24.4276 22.269 24.2393 22.3764L15.8761 27.1453C15.6878 27.2527 15.4561 27.2527 15.2671 27.1453H15.2678ZM8.42635 21.509L15.2678 25.4098C15.4561 25.5179 15.6878 25.5179 15.8761 25.4098L22.7176 21.509C22.9058 21.4016 23.0221 21.2031 23.0221 20.9883V13.1868C23.0221 12.972 22.9058 12.7735 22.7176 12.6653L15.8761 8.7646C15.6878 8.65719 15.4561 8.65719 15.2671 8.7646L8.42635 12.6653C8.2381 12.7735 8.12185 12.972 8.1226 13.1868V20.9883C8.1226 21.2031 8.2381 21.4016 8.42635 21.509Z" fill="black"/>
<path d="M15.2678 10.1445L9.63604 13.3556C9.44779 13.4631 9.33154 13.6616 9.33154 13.8764V19.9512C9.33154 20.3808 9.56404 20.7779 9.94054 20.9927L10.6253 21.3831C10.6725 21.4097 10.7303 21.4097 10.7775 21.3831C10.8248 21.3564 10.854 21.3068 10.8533 21.2534V14.7445C10.8533 14.5297 10.9695 14.3312 11.1578 14.2238L15.267 11.8808C15.4553 11.7734 15.6878 11.7734 15.876 11.8808L19.9853 14.2238C20.1735 14.3312 20.2898 14.5297 20.2898 14.7445V19.4312C20.2898 19.646 20.1735 19.8445 19.9853 19.9519L15.876 22.2949C15.6878 22.4023 15.4553 22.4023 15.267 22.2949L13.8975 21.5142C13.7093 21.4068 13.593 21.2082 13.593 20.9934V16.3068C13.593 16.0919 13.7093 15.8934 13.8975 15.786L15.267 15.0045C15.4553 14.8971 15.6878 14.8971 15.876 15.0045L17.2455 15.786C17.4345 15.8934 17.55 16.0919 17.55 16.3068V17.869C17.55 18.0838 17.4345 18.2823 17.2455 18.3897L16.5608 18.7801C16.5135 18.8068 16.4558 18.8068 16.4085 18.7801C16.3613 18.7534 16.3328 18.7038 16.3328 18.6497V17.0119C16.3328 16.7971 16.2165 16.5986 16.0283 16.4912L15.7238 16.3171C15.6293 16.2638 15.5138 16.2638 15.4193 16.3171L15.039 16.5342C14.898 16.6142 14.811 16.7631 14.811 16.9245V20.3053C14.811 20.5208 14.928 20.7201 15.117 20.8268L15.264 20.9097C15.4523 21.0156 15.6833 21.0149 15.8708 20.9082L18.7673 19.2564C18.9563 19.149 19.0718 18.9505 19.0718 18.7356V15.4371C19.0718 15.2223 18.9563 15.0238 18.768 14.9164L15.876 13.2675C15.6878 13.1601 15.456 13.1601 15.267 13.2675L12.3758 14.9164C12.1875 15.0238 12.0713 15.2223 12.0713 15.4371V21.8594C12.0713 22.0742 12.1875 22.2727 12.3758 22.3801L15.2678 24.029C15.456 24.1364 15.6878 24.1364 15.876 24.029L21.507 20.8179C21.696 20.7105 21.8115 20.5119 21.8115 20.2971V13.8756C21.8115 13.6608 21.696 13.4616 21.507 13.3542L15.876 10.1431C15.6878 10.0356 15.456 10.0356 15.2678 10.1431V10.1445Z" fill="black"/>
</g>
</g>
<defs>
<clipPath id="clip0_991_1384">
<rect width="20" height="20" fill="white" transform="translate(6.6001 6.94824)"/>
</clipPath>
<clipPath id="clip1_991_1384">
<rect width="18" height="20" fill="white" transform="translate(6.6001 6.94824)"/>
</clipPath>
</defs>
</svg>
