<svg width="56" height="56" viewBox="0 0 56 56" fill="none" xmlns="http://www.w3.org/2000/svg">
<g filter="url(#filter0_d_991_1356)">
<rect x="10.3999" y="6.34814" width="35.2" height="35.2" rx="8.8" fill="white"/>
<rect x="10.9499" y="6.89814" width="34.1" height="34.1" rx="8.25" stroke="black" stroke-opacity="0.1" stroke-width="1.1"/>
<g opacity="0.8" clip-path="url(#clip0_991_1356)">
<path d="M27.9975 13.7537L27.8691 14.169V26.2219L27.9975 26.344L33.872 23.0369L27.9975 13.7537Z" fill="black"/>
<path d="M27.9977 13.7537L22.123 23.0369L27.9977 26.344V20.4939V13.7537Z" fill="black"/>
<path d="M27.9981 28.1643L27.9258 28.2482V32.5418L27.9981 32.743L33.8762 24.8589L27.9981 28.1643Z" fill="black"/>
<path d="M27.9977 32.743V28.1643L22.123 24.8589L27.9977 32.743Z" fill="black"/>
<path d="M27.9976 26.3442L33.8721 23.0372L27.9976 20.4941V26.3442Z" fill="black"/>
<path d="M22.123 23.0367L27.9976 26.3437V20.4937L22.123 23.0367Z" fill="black"/>
<path d="M19.3126 19.3516C20.0655 18.6302 21.0364 18.2328 22.0415 18.2345H34.4165C35.4624 18.2345 36.4176 18.6565 37.1454 19.3516C37.0617 18.6316 36.7382 17.9695 36.2358 17.4895C35.7333 17.0095 35.0864 16.7447 34.4165 16.7449H22.0415C21.3716 16.7447 20.7247 17.0095 20.2222 17.4895C19.7198 17.9695 19.3963 18.6316 19.3126 19.3516ZM19.3126 22.3308C20.0655 21.6094 21.0364 21.2119 22.0415 21.2136H34.4165C35.4624 21.2136 36.4176 21.6357 37.1454 22.3308C37.0617 21.6108 36.7382 20.9486 36.2358 20.4687C35.7333 19.9887 35.0864 19.7239 34.4165 19.724H22.0415C21.3716 19.7239 20.7247 19.9887 20.2222 20.4687C19.7198 20.9486 19.3963 21.6108 19.3126 22.3308ZM22.0415 22.7032C21.3122 22.7032 20.6127 23.0171 20.097 23.5758C19.5812 24.1345 19.2915 24.8922 19.2915 25.6824V31.6407C19.2915 32.4308 19.5812 33.1886 20.097 33.7473C20.6127 34.306 21.3122 34.6199 22.0415 34.6199H34.4165C35.1458 34.6199 35.8453 34.306 36.361 33.7473C36.8768 33.1886 37.1665 32.4308 37.1665 31.6407V25.6824C37.1665 24.8922 36.8768 24.1345 36.361 23.5758C35.8453 23.0171 35.1458 22.7032 34.4165 22.7032H30.979C30.7967 22.7032 30.6218 22.7817 30.4929 22.9214C30.3639 23.061 30.2915 23.2505 30.2915 23.448C30.2915 24.0406 30.0742 24.6089 29.6874 25.0279C29.3006 25.447 28.776 25.6824 28.229 25.6824C27.682 25.6824 27.1574 25.447 26.7706 25.0279C26.3838 24.6089 26.1665 24.0406 26.1665 23.448C26.1665 23.2505 26.0941 23.061 25.9651 22.9214C25.8362 22.7817 25.6613 22.7032 25.479 22.7032H22.0415Z" fill="black" fill-opacity="0.2"/>
</g>
</g>
<defs>
<filter id="filter0_d_991_1356" x="0.499902" y="0.848144" width="55.0002" height="55" filterUnits="userSpaceOnUse" color-interpolation-filters="sRGB">
<feFlood flood-opacity="0" result="BackgroundImageFix"/>
<feColorMatrix in="SourceAlpha" type="matrix" values="0 0 0 0 0 0 0 0 0 0 0 0 0 0 0 0 0 0 127 0" result="hardAlpha"/>
<feOffset dy="4.4"/>
<feGaussianBlur stdDeviation="4.95"/>
<feComposite in2="hardAlpha" operator="out"/>
<feColorMatrix type="matrix" values="0 0 0 0 0 0 0 0 0 0 0 0 0 0 0 0 0 0 0.1 0"/>
<feBlend mode="normal" in2="BackgroundImageFix" result="effect1_dropShadow_991_1356"/>
<feBlend mode="normal" in="SourceGraphic" in2="effect1_dropShadow_991_1356" result="shape"/>
</filter>
<clipPath id="clip0_991_1356">
<rect width="22" height="22" fill="white" transform="translate(16.9995 12.948)"/>
</clipPath>
</defs>
</svg>
