<svg width="35" height="35" viewBox="0 0 35 35" fill="none" xmlns="http://www.w3.org/2000/svg">
<g opacity="0.5">
<path d="M16.9956 2.42225C17.1505 2.33867 17.3239 2.29492 17.4999 2.29492C17.676 2.29492 17.8493 2.33867 18.0043 2.42225L31.8168 9.85975C31.9854 9.95079 32.1263 10.0858 32.2245 10.2504C32.3227 10.415 32.3746 10.6031 32.3746 10.7947C32.3746 10.9864 32.3227 11.1745 32.2245 11.3391C32.1263 11.5037 31.9854 11.6387 31.8168 11.7297L18.0043 19.1672C17.8493 19.2508 17.676 19.2946 17.4999 19.2946C17.3239 19.2946 17.1505 19.2508 16.9956 19.1672L3.18308 11.7297C3.01441 11.6387 2.87351 11.5037 2.7753 11.3391C2.67709 11.1745 2.62524 10.9864 2.62524 10.7947C2.62524 10.6031 2.67709 10.415 2.7753 10.2504C2.87351 10.0858 3.01441 9.95079 3.18308 9.85975L16.9956 2.42225Z" fill="black"/>
<path d="M5.12538 15.1894L15.9884 21.0388C16.4529 21.289 16.9723 21.42 17.5 21.42C18.0276 21.42 18.547 21.289 19.0115 21.0388L29.8745 15.188L31.8154 16.2349C31.9841 16.3259 32.125 16.4609 32.2232 16.6255C32.3214 16.7901 32.3732 16.9782 32.3732 17.1699C32.3732 17.3616 32.3214 17.5497 32.2232 17.7143C32.125 17.8789 31.9841 18.0139 31.8154 18.1049L18.0029 25.5424C17.8483 25.6255 17.6755 25.669 17.5 25.669C17.3244 25.669 17.1517 25.6255 16.997 25.5424L3.18455 18.1049C3.01588 18.0139 2.87497 17.8789 2.77677 17.7143C2.67856 17.5497 2.62671 17.3616 2.62671 17.1699C2.62671 16.9782 2.67856 16.7901 2.77677 16.6255C2.87497 16.4609 3.01588 16.3259 3.18455 16.2349L5.12538 15.1894Z" fill="black"/>
<path d="M15.9884 27.4138L5.12538 21.563L3.18455 22.6099C3.01588 22.7009 2.87497 22.8359 2.77677 23.0005C2.67856 23.1651 2.62671 23.3532 2.62671 23.5449C2.62671 23.7366 2.67856 23.9247 2.77677 24.0893C2.87497 24.2539 3.01588 24.3889 3.18455 24.4799L16.997 31.9174C17.3101 32.0874 17.6898 32.0874 18.0029 31.9174L31.8154 24.4799C31.9841 24.3889 32.125 24.2539 32.2232 24.0893C32.3214 23.9247 32.3732 23.7366 32.3732 23.5449C32.3732 23.3532 32.3214 23.1651 32.2232 23.0005C32.125 22.8359 31.9841 22.7009 31.8154 22.6099L29.8745 21.5644L19.0115 27.4152C18.5469 27.6652 18.0274 27.796 17.4998 27.7957C16.9721 27.7955 16.4528 27.6643 15.9884 27.4138Z" fill="black"/>
</g>
</svg>
