<svg width="30" height="30" viewBox="0 0 30 30" fill="none" xmlns="http://www.w3.org/2000/svg">
<path fill-rule="evenodd" clip-rule="evenodd" d="M15 27C18.1826 27 21.2348 25.7357 23.4853 23.4853C25.7357 21.2348 27 18.1826 27 15C27 11.8174 25.7357 8.76516 23.4853 6.51472C21.2348 4.26428 18.1826 3 15 3C11.8174 3 8.76516 4.26428 6.51472 6.51472C4.26428 8.76516 3 11.8174 3 15C3 18.1826 4.26428 21.2348 6.51472 23.4853C8.76516 25.7357 11.8174 27 15 27V27ZM20.5605 13.0605C20.8337 12.7776 20.9849 12.3987 20.9815 12.0054C20.9781 11.6121 20.8203 11.2359 20.5422 10.9578C20.2641 10.6797 19.8879 10.5219 19.4946 10.5185C19.1013 10.5151 18.7224 10.6663 18.4395 10.9395L13.5 15.879L11.5605 13.9395C11.2776 13.6663 10.8987 13.5151 10.5054 13.5185C10.1121 13.5219 9.73588 13.6797 9.45777 13.9578C9.17966 14.2359 9.02191 14.6121 9.01849 15.0054C9.01507 15.3987 9.16626 15.7776 9.4395 16.0605L12.4395 19.0605C12.7208 19.3417 13.1023 19.4997 13.5 19.4997C13.8977 19.4997 14.2792 19.3417 14.5605 19.0605L20.5605 13.0605V13.0605Z" fill="black"/>
</svg>
