<svg width="30" height="32" viewBox="0 0 30 32" fill="none" xmlns="http://www.w3.org/2000/svg">
<rect x="0.5" y="0.5" width="29" height="31" rx="7.5" stroke="black" stroke-opacity="0.1"/>
<path fill-rule="evenodd" clip-rule="evenodd" d="M15 26C20.5228 26 25 21.5228 25 16C25 10.4772 20.5228 6 15 6C9.47715 6 5 10.4772 5 16C5 21.5228 9.47715 26 15 26ZM7.15167 18.395V15.5694C7.15167 15.4836 7.19785 15.4044 7.27254 15.3622L8.32391 14.7674C8.48263 14.6777 8.67923 14.7923 8.67923 14.9747V17.7846C8.67923 17.9161 8.78583 18.0227 8.91733 18.0227H9.45951C9.59101 18.0227 9.69761 18.1293 9.69761 18.2608V19.0807C9.69761 19.2122 9.80421 19.3188 9.9357 19.3188H9.9687C10.1002 19.3188 10.2068 19.4254 10.2068 19.5569V20.8089C10.2068 20.9404 10.3134 21.047 10.4449 21.047H10.9871C11.1186 21.047 11.2252 20.9404 11.2252 20.8089V16.4048C11.2252 16.3349 11.2559 16.2685 11.3092 16.2233L12.3606 15.3312C12.5153 15.2 12.7527 15.3099 12.7527 15.5128V20.8089C12.7527 20.9404 12.8593 21.047 12.9908 21.047H13.0238C13.1553 21.047 13.2619 20.9404 13.2619 20.8089V17.9503C13.2619 17.7798 13.436 17.6646 13.593 17.7312L14.1352 17.9612C14.2232 17.9985 14.2803 18.0848 14.2803 18.1804V20.8089C14.2803 20.9404 14.3869 21.047 14.5184 21.047H14.5514C14.6829 21.047 14.7895 20.9404 14.7895 20.8089V15.1087C14.7895 15.0388 14.8202 14.9724 14.8735 14.9272L16.233 13.7737C16.2863 13.7285 16.317 13.6621 16.317 13.5922V11.8384C16.317 11.7684 16.3478 11.7021 16.4011 11.6568L17.9616 10.3327C18.1163 10.2015 18.3538 10.3114 18.3538 10.5143V20.8089C18.3538 20.9404 18.4604 21.047 18.5919 21.047H18.6249C18.7564 21.047 18.863 20.9404 18.863 20.8089V19.5569C18.863 19.4254 18.9696 19.3188 19.1011 19.3188H19.6432C19.7747 19.3188 19.8813 19.2122 19.8813 19.0807V14.9548C19.8813 14.7771 20.0691 14.662 20.2275 14.7427L22.2972 15.7963C22.377 15.837 22.4273 15.919 22.4273 16.0085V17.5009C22.4273 17.5588 22.4483 17.6147 22.4866 17.6581L23.0193 18.2641C23.0619 18.3126 23.0755 18.3801 23.0548 18.4413C20.5941 25.7484 10.4365 26.2159 7.31486 19.1659L7.0372 18.5388C7.01969 18.4992 7.04864 18.4548 7.09187 18.4548C7.1249 18.4548 7.15167 18.428 7.15167 18.395Z" fill="black"/>
</svg>
