<svg width="25" height="25" viewBox="0 0 25 25" fill="none" xmlns="http://www.w3.org/2000/svg">
<path fill-rule="evenodd" clip-rule="evenodd" d="M12.5 24.1699C19.1274 24.1699 24.5 18.7973 24.5 12.1699C24.5 5.5425 19.1274 0.169922 12.5 0.169922C5.87258 0.169922 0.5 5.5425 0.5 12.1699C0.5 18.7973 5.87258 24.1699 12.5 24.1699ZM3.08191 15.0439V11.6255C3.08191 11.5397 3.12809 11.4605 3.20278 11.4182L4.55966 10.6507C4.71838 10.5609 4.91498 10.6756 4.91498 10.8579V14.3592C4.91498 14.4907 5.02158 14.5973 5.15308 14.5973H5.89894C6.03043 14.5973 6.13703 14.7039 6.13703 14.8353V15.9145C6.13703 16.046 6.24363 16.1526 6.37513 16.1526H6.50996C6.64146 16.1526 6.74805 16.2592 6.74805 16.3907V17.9883C6.74805 18.1197 6.85465 18.2263 6.98615 18.2263H7.73201C7.8635 18.2263 7.9701 18.1197 7.9701 17.9883V12.6337C7.9701 12.5638 8.00084 12.4974 8.05416 12.4522L9.41104 11.3009C9.56572 11.1696 9.80317 11.2796 9.80317 11.4824V17.9883C9.80317 18.1197 9.90977 18.2263 10.0413 18.2263H10.1761C10.3076 18.2263 10.4142 18.1197 10.4142 17.9883V14.4385C10.4142 14.2679 10.5883 14.1527 10.7453 14.2193L11.4911 14.5357C11.5791 14.573 11.6362 14.6593 11.6362 14.7549V17.9883C11.6362 18.1197 11.7428 18.2263 11.8743 18.2263H12.0092C12.1407 18.2263 12.2473 18.1197 12.2473 17.9883V11.0784C12.2473 11.0085 12.278 10.9421 12.3313 10.8968L13.9963 9.48415C14.0496 9.43891 14.0803 9.37252 14.0803 9.3026V7.15396C14.0803 7.08404 14.1111 7.01765 14.1644 6.97241L16.1323 5.30269C16.287 5.17144 16.5244 5.28138 16.5244 5.48424V17.9883C16.5244 18.1197 16.631 18.2263 16.7625 18.2263H16.8974C17.0289 18.2263 17.1355 18.1197 17.1355 17.9883V16.3907C17.1355 16.2592 17.2421 16.1526 17.3736 16.1526H18.1194C18.2509 16.1526 18.3575 16.046 18.3575 15.9145V10.8381C18.3575 10.6604 18.5452 10.5453 18.7036 10.6259L21.2826 11.9388C21.3624 11.9795 21.4126 12.0614 21.4126 12.151V13.989C21.4126 14.0469 21.4337 14.1028 21.4719 14.1462L22.123 14.8869C22.1742 14.9451 22.1904 15.0261 22.1657 15.0995C19.2128 23.868 7.02373 24.4291 3.27774 15.969L2.94454 15.2165C2.92353 15.1691 2.95827 15.1157 3.01015 15.1157C3.04978 15.1157 3.08191 15.0836 3.08191 15.0439Z" fill="black"/>
</svg>
